<?xml version="1.0" encoding="UTF-8"?>
<!DOCTYPE svg
PUBLIC "-//W3C//DTD SVG 1.1//EN"
       "http://www.w3.org/Graphics/SVG/1.1/DTD/svg11.dtd">
<svg viewBox="47 41 723 864" width="676px" height="823px" xmlns="http://www.w3.org/2000/svg" version="1.1">
   <line x1="62" y1="112" x2="52" y2="112" style="stroke:#bbb;stroke-width:1;"/>
   <line x1="95" y1="416" x2="105" y2="416" style="stroke:#bbb;stroke-width:1;"/>
   <line x1="52" y1="112" x2="95" y2="416" style="stroke:#bbb;stroke-width:1;"/>
   <line x1="54.5" y1="112" x2="58.035533905933" y2="115.53553390593" style="stroke:#bbb;stroke-width:2;"/>
   <line x1="54.5" y1="112" x2="58.035533905933" y2="108.46446609407" style="stroke:#bbb;stroke-width:2;"/>
   <line x1="100" y1="416" x2="96.464466094067" y2="419.53553390593" style="stroke:#bbb;stroke-width:2;"/>
   <line x1="100" y1="416" x2="96.464466094067" y2="412.46446609407" style="stroke:#bbb;stroke-width:2;"/>
   <line x1="186" y1="132" x2="196" y2="132" style="stroke:#333;stroke-width:1;"/>
   <line x1="577" y1="480" x2="587" y2="480" style="stroke:#333;stroke-width:1;"/>
   <line x1="196" y1="132" x2="577" y2="480" style="stroke:#333;stroke-width:1;"/>
   <line x1="193.5" y1="132" x2="189.96446609407" y2="135.53553390593" style="stroke:#333;stroke-width:2;"/>
   <line x1="193.5" y1="132" x2="189.96446609407" y2="128.46446609407" style="stroke:#333;stroke-width:2;"/>
   <line x1="582" y1="480" x2="578.46446609407" y2="483.53553390593" style="stroke:#333;stroke-width:2;"/>
   <line x1="582" y1="480" x2="578.46446609407" y2="476.46446609407" style="stroke:#333;stroke-width:2;"/>
   <line x1="265" y1="137" x2="275" y2="137" style="stroke:#0b0;stroke-width:1;"/>
   <line x1="240" y1="416" x2="230" y2="416" style="stroke:#0b0;stroke-width:1;"/>
   <line x1="275" y1="137" x2="240" y2="416" style="stroke:#0b0;stroke-width:1;"/>
   <line x1="272.5" y1="137" x2="268.96446609407" y2="140.53553390593" style="stroke:#0b0;stroke-width:2;"/>
   <line x1="272.5" y1="137" x2="268.96446609407" y2="133.46446609407" style="stroke:#0b0;stroke-width:2;"/>
   <line x1="235" y1="416" x2="238.53553390593" y2="419.53553390593" style="stroke:#0b0;stroke-width:2;"/>
   <line x1="235" y1="416" x2="238.53553390593" y2="412.46446609407" style="stroke:#0b0;stroke-width:2;"/>
   <line x1="265" y1="157" x2="275" y2="157" style="stroke:#0b0;stroke-width:1;"/>
   <line x1="246" y1="125" x2="236" y2="125" style="stroke:#0b0;stroke-width:1;"/>
   <line x1="275" y1="157" x2="246" y2="125" style="stroke:#0b0;stroke-width:1;"/>
   <line x1="272.5" y1="157" x2="268.96446609407" y2="160.53553390593" style="stroke:#0b0;stroke-width:2;"/>
   <line x1="272.5" y1="157" x2="268.96446609407" y2="153.46446609407" style="stroke:#0b0;stroke-width:2;"/>
   <line x1="241" y1="125" x2="244.53553390593" y2="128.53553390593" style="stroke:#0b0;stroke-width:2;"/>
   <line x1="241" y1="125" x2="244.53553390593" y2="121.46446609407" style="stroke:#0b0;stroke-width:2;"/>
   <line x1="169" y1="177" x2="159" y2="177" style="stroke:#333;stroke-width:1;"/>
   <line x1="196" y1="92" x2="186" y2="92" style="stroke:#333;stroke-width:1;"/>
   <line x1="159" y1="177" x2="196" y2="92" style="stroke:#333;stroke-width:1;"/>
   <line x1="161.5" y1="177" x2="165.03553390593" y2="180.53553390593" style="stroke:#333;stroke-width:2;"/>
   <line x1="161.5" y1="177" x2="165.03553390593" y2="173.46446609407" style="stroke:#333;stroke-width:2;"/>
   <line x1="191" y1="92" x2="194.53553390593" y2="95.535533905933" style="stroke:#333;stroke-width:2;"/>
   <line x1="191" y1="92" x2="194.53553390593" y2="88.464466094067" style="stroke:#333;stroke-width:2;"/>
   <line x1="265" y1="197" x2="275" y2="197" style="stroke:#333;stroke-width:1;"/>
   <line x1="577" y1="480" x2="587" y2="480" style="stroke:#333;stroke-width:1;"/>
   <line x1="275" y1="197" x2="577" y2="480" style="stroke:#333;stroke-width:1;"/>
   <line x1="272.5" y1="197" x2="268.96446609407" y2="200.53553390593" style="stroke:#333;stroke-width:2;"/>
   <line x1="272.5" y1="197" x2="268.96446609407" y2="193.46446609407" style="stroke:#333;stroke-width:2;"/>
   <line x1="582" y1="480" x2="578.46446609407" y2="483.53553390593" style="stroke:#333;stroke-width:2;"/>
   <line x1="582" y1="480" x2="578.46446609407" y2="476.46446609407" style="stroke:#333;stroke-width:2;"/>
   <line x1="169" y1="217" x2="159" y2="217" style="stroke:#0b0;stroke-width:1;"/>
   <line x1="203" y1="251" x2="213" y2="251" style="stroke:#0b0;stroke-width:1;"/>
   <line x1="159" y1="217" x2="203" y2="251" style="stroke:#0b0;stroke-width:1;"/>
   <line x1="161.5" y1="217" x2="165.03553390593" y2="220.53553390593" style="stroke:#0b0;stroke-width:2;"/>
   <line x1="161.5" y1="217" x2="165.03553390593" y2="213.46446609407" style="stroke:#0b0;stroke-width:2;"/>
   <line x1="208" y1="251" x2="204.46446609407" y2="254.53553390593" style="stroke:#0b0;stroke-width:2;"/>
   <line x1="208" y1="251" x2="204.46446609407" y2="247.46446609407" style="stroke:#0b0;stroke-width:2;"/>
   <line x1="265" y1="237" x2="275" y2="237" style="stroke:#b0b;stroke-width:1;"/>
   <line x1="547" y1="520" x2="557" y2="520" style="stroke:#b0b;stroke-width:1;"/>
   <line x1="275" y1="237" x2="547" y2="520" style="stroke:#b0b;stroke-width:1;"/>
   <line x1="272.5" y1="237" x2="268.96446609407" y2="240.53553390593" style="stroke:#b0b;stroke-width:2;"/>
   <line x1="272.5" y1="237" x2="268.96446609407" y2="233.46446609407" style="stroke:#b0b;stroke-width:2;"/>
   <line x1="552" y1="520" x2="548.46446609407" y2="523.53553390593" style="stroke:#b0b;stroke-width:2;"/>
   <line x1="552" y1="520" x2="548.46446609407" y2="516.46446609407" style="stroke:#b0b;stroke-width:2;"/>
   <line x1="265" y1="277" x2="275" y2="277" style="stroke:#cb0;stroke-width:1;"/>
   <line x1="255" y1="579" x2="245" y2="579" style="stroke:#cb0;stroke-width:1;"/>
   <line x1="275" y1="277" x2="255" y2="579" style="stroke:#cb0;stroke-width:1;"/>
   <line x1="272.5" y1="277" x2="268.96446609407" y2="280.53553390593" style="stroke:#cb0;stroke-width:2;"/>
   <line x1="272.5" y1="277" x2="268.96446609407" y2="273.46446609407" style="stroke:#cb0;stroke-width:2;"/>
   <line x1="250" y1="579" x2="253.53553390593" y2="582.53553390593" style="stroke:#cb0;stroke-width:2;"/>
   <line x1="250" y1="579" x2="253.53553390593" y2="575.46446609407" style="stroke:#cb0;stroke-width:2;"/>
   <line x1="587" y1="680" x2="577" y2="680" style="stroke:#0bf;stroke-width:1;"/>
   <line x1="389" y1="140" x2="379" y2="140" style="stroke:#0bf;stroke-width:1;"/>
   <line x1="577" y1="680" x2="389" y2="140" style="stroke:#0bf;stroke-width:1;"/>
   <line x1="579.5" y1="680" x2="583.03553390593" y2="683.53553390593" style="stroke:#0bf;stroke-width:2;"/>
   <line x1="579.5" y1="680" x2="583.03553390593" y2="676.46446609407" style="stroke:#0bf;stroke-width:2;"/>
   <line x1="384" y1="140" x2="387.53553390593" y2="143.53553390593" style="stroke:#0bf;stroke-width:2;"/>
   <line x1="384" y1="140" x2="387.53553390593" y2="136.46446609407" style="stroke:#0bf;stroke-width:2;"/>
   <line x1="147" y1="591" x2="137" y2="591" style="stroke:#0b0;stroke-width:1;"/>
   <line x1="95" y1="416" x2="105" y2="416" style="stroke:#0b0;stroke-width:1;"/>
   <line x1="137" y1="591" x2="95" y2="416" style="stroke:#0b0;stroke-width:1;"/>
   <line x1="139.5" y1="591" x2="143.03553390593" y2="594.53553390593" style="stroke:#0b0;stroke-width:2;"/>
   <line x1="139.5" y1="591" x2="143.03553390593" y2="587.46446609407" style="stroke:#0b0;stroke-width:2;"/>
   <line x1="100" y1="416" x2="96.464466094067" y2="419.53553390593" style="stroke:#0b0;stroke-width:2;"/>
   <line x1="100" y1="416" x2="96.464466094067" y2="412.46446609407" style="stroke:#0b0;stroke-width:2;"/>
   <line x1="589" y1="222" x2="579" y2="222" style="stroke:#c00;stroke-width:1;"/>
   <line x1="577" y1="480" x2="587" y2="480" style="stroke:#c00;stroke-width:1;"/>
   <line x1="579" y1="222" x2="577" y2="480" style="stroke:#c00;stroke-width:1;"/>
   <line x1="581.5" y1="222" x2="585.03553390593" y2="225.53553390593" style="stroke:#c00;stroke-width:2;"/>
   <line x1="581.5" y1="222" x2="585.03553390593" y2="218.46446609407" style="stroke:#c00;stroke-width:2;"/>
   <line x1="582" y1="480" x2="578.46446609407" y2="483.53553390593" style="stroke:#c00;stroke-width:2;"/>
   <line x1="582" y1="480" x2="578.46446609407" y2="476.46446609407" style="stroke:#c00;stroke-width:2;"/>
   <line x1="589" y1="242" x2="579" y2="242" style="stroke:#cb0;stroke-width:1;"/>
   <line x1="389" y1="140" x2="379" y2="140" style="stroke:#cb0;stroke-width:1;"/>
   <line x1="579" y1="242" x2="389" y2="140" style="stroke:#cb0;stroke-width:1;"/>
   <line x1="581.5" y1="242" x2="585.03553390593" y2="245.53553390593" style="stroke:#cb0;stroke-width:2;"/>
   <line x1="581.5" y1="242" x2="585.03553390593" y2="238.46446609407" style="stroke:#cb0;stroke-width:2;"/>
   <line x1="384" y1="140" x2="387.53553390593" y2="143.53553390593" style="stroke:#cb0;stroke-width:2;"/>
   <line x1="384" y1="140" x2="387.53553390593" y2="136.46446609407" style="stroke:#cb0;stroke-width:2;"/>
   <line x1="267" y1="177" x2="257" y2="177" style="stroke:#bbb;stroke-width:1;"/>
   <line x1="240" y1="416" x2="230" y2="416" style="stroke:#bbb;stroke-width:1;"/>
   <line x1="257" y1="177" x2="240" y2="416" style="stroke:#bbb;stroke-width:1;"/>
   <line x1="259.5" y1="177" x2="263.03553390593" y2="180.53553390593" style="stroke:#bbb;stroke-width:2;"/>
   <line x1="259.5" y1="177" x2="263.03553390593" y2="173.46446609407" style="stroke:#bbb;stroke-width:2;"/>
   <line x1="235" y1="416" x2="238.53553390593" y2="419.53553390593" style="stroke:#bbb;stroke-width:2;"/>
   <line x1="235" y1="416" x2="238.53553390593" y2="412.46446609407" style="stroke:#bbb;stroke-width:2;"/>
   <line x1="390" y1="197" x2="400" y2="197" style="stroke:#cb0;stroke-width:1;"/>
   <line x1="547" y1="520" x2="557" y2="520" style="stroke:#cb0;stroke-width:1;"/>
   <line x1="400" y1="197" x2="547" y2="520" style="stroke:#cb0;stroke-width:1;"/>
   <line x1="397.5" y1="197" x2="393.96446609407" y2="200.53553390593" style="stroke:#cb0;stroke-width:2;"/>
   <line x1="397.5" y1="197" x2="393.96446609407" y2="193.46446609407" style="stroke:#cb0;stroke-width:2;"/>
   <line x1="552" y1="520" x2="548.46446609407" y2="523.53553390593" style="stroke:#cb0;stroke-width:2;"/>
   <line x1="552" y1="520" x2="548.46446609407" y2="516.46446609407" style="stroke:#cb0;stroke-width:2;"/>
   <line x1="490" y1="520" x2="480" y2="520" style="stroke:#bbb;stroke-width:1;"/>
   <line x1="240" y1="416" x2="230" y2="416" style="stroke:#bbb;stroke-width:1;"/>
   <line x1="480" y1="520" x2="240" y2="416" style="stroke:#bbb;stroke-width:1;"/>
   <line x1="482.5" y1="520" x2="486.03553390593" y2="523.53553390593" style="stroke:#bbb;stroke-width:2;"/>
   <line x1="482.5" y1="520" x2="486.03553390593" y2="516.46446609407" style="stroke:#bbb;stroke-width:2;"/>
   <line x1="235" y1="416" x2="238.53553390593" y2="419.53553390593" style="stroke:#bbb;stroke-width:2;"/>
   <line x1="235" y1="416" x2="238.53553390593" y2="412.46446609407" style="stroke:#bbb;stroke-width:2;"/>
   <line x1="245" y1="599" x2="255" y2="599" style="stroke:#b0b;stroke-width:1;"/>
   <line x1="280" y1="140" x2="290" y2="140" style="stroke:#b0b;stroke-width:1;"/>
   <line x1="255" y1="599" x2="280" y2="140" style="stroke:#b0b;stroke-width:1;"/>
   <line x1="252.5" y1="599" x2="248.96446609407" y2="602.53553390593" style="stroke:#b0b;stroke-width:2;"/>
   <line x1="252.5" y1="599" x2="248.96446609407" y2="595.46446609407" style="stroke:#b0b;stroke-width:2;"/>
   <line x1="285" y1="140" x2="281.46446609407" y2="143.53553390593" style="stroke:#b0b;stroke-width:2;"/>
   <line x1="285" y1="140" x2="281.46446609407" y2="136.46446609407" style="stroke:#b0b;stroke-width:2;"/>
   <line x1="245" y1="739" x2="255" y2="739" style="stroke:#0bf;stroke-width:1;"/>
   <line x1="547" y1="520" x2="557" y2="520" style="stroke:#0bf;stroke-width:1;"/>
   <line x1="255" y1="739" x2="547" y2="520" style="stroke:#0bf;stroke-width:1;"/>
   <line x1="252.5" y1="739" x2="248.96446609407" y2="742.53553390593" style="stroke:#0bf;stroke-width:2;"/>
   <line x1="252.5" y1="739" x2="248.96446609407" y2="735.46446609407" style="stroke:#0bf;stroke-width:2;"/>
   <line x1="552" y1="520" x2="548.46446609407" y2="523.53553390593" style="stroke:#0bf;stroke-width:2;"/>
   <line x1="552" y1="520" x2="548.46446609407" y2="516.46446609407" style="stroke:#0bf;stroke-width:2;"/>
   <line x1="245" y1="759" x2="255" y2="759" style="stroke:#b0b;stroke-width:1;"/>
   <line x1="547" y1="520" x2="557" y2="520" style="stroke:#b0b;stroke-width:1;"/>
   <line x1="255" y1="759" x2="547" y2="520" style="stroke:#b0b;stroke-width:1;"/>
   <line x1="252.5" y1="759" x2="248.96446609407" y2="762.53553390593" style="stroke:#b0b;stroke-width:2;"/>
   <line x1="252.5" y1="759" x2="248.96446609407" y2="755.46446609407" style="stroke:#b0b;stroke-width:2;"/>
   <line x1="552" y1="520" x2="548.46446609407" y2="523.53553390593" style="stroke:#b0b;stroke-width:2;"/>
   <line x1="552" y1="520" x2="548.46446609407" y2="516.46446609407" style="stroke:#b0b;stroke-width:2;"/>
   <line x1="345" y1="86" x2="335" y2="86" style="stroke:#0bf;stroke-width:1;"/>
   <line x1="246" y1="125" x2="236" y2="125" style="stroke:#0bf;stroke-width:1;"/>
   <line x1="335" y1="86" x2="246" y2="125" style="stroke:#0bf;stroke-width:1;"/>
   <line x1="337.5" y1="86" x2="341.03553390593" y2="89.535533905933" style="stroke:#0bf;stroke-width:2;"/>
   <line x1="337.5" y1="86" x2="341.03553390593" y2="82.464466094067" style="stroke:#0bf;stroke-width:2;"/>
   <line x1="241" y1="125" x2="244.53553390593" y2="128.53553390593" style="stroke:#0bf;stroke-width:2;"/>
   <line x1="241" y1="125" x2="244.53553390593" y2="121.46446609407" style="stroke:#0bf;stroke-width:2;"/>
   <line x1="345" y1="106" x2="335" y2="106" style="stroke:#bbb;stroke-width:1;"/>
   <line x1="196" y1="92" x2="186" y2="92" style="stroke:#bbb;stroke-width:1;"/>
   <line x1="335" y1="106" x2="196" y2="92" style="stroke:#bbb;stroke-width:1;"/>
   <line x1="337.5" y1="106" x2="341.03553390593" y2="109.53553390593" style="stroke:#bbb;stroke-width:2;"/>
   <line x1="337.5" y1="106" x2="341.03553390593" y2="102.46446609407" style="stroke:#bbb;stroke-width:2;"/>
   <line x1="191" y1="92" x2="194.53553390593" y2="95.535533905933" style="stroke:#bbb;stroke-width:2;"/>
   <line x1="191" y1="92" x2="194.53553390593" y2="88.464466094067" style="stroke:#bbb;stroke-width:2;"/>
   <line x1="487" y1="126" x2="497" y2="126" style="stroke:#b0b;stroke-width:1;"/>
   <line x1="604" y1="325" x2="614" y2="325" style="stroke:#b0b;stroke-width:1;"/>
   <line x1="497" y1="126" x2="604" y2="325" style="stroke:#b0b;stroke-width:1;"/>
   <line x1="494.5" y1="126" x2="490.96446609407" y2="129.53553390593" style="stroke:#b0b;stroke-width:2;"/>
   <line x1="494.5" y1="126" x2="490.96446609407" y2="122.46446609407" style="stroke:#b0b;stroke-width:2;"/>
   <line x1="609" y1="325" x2="605.46446609407" y2="328.53553390593" style="stroke:#b0b;stroke-width:2;"/>
   <line x1="609" y1="325" x2="605.46446609407" y2="321.46446609407" style="stroke:#b0b;stroke-width:2;"/>
   <line x1="236" y1="145" x2="246" y2="145" style="stroke:#cb0;stroke-width:1;"/>
   <line x1="196" y1="92" x2="186" y2="92" style="stroke:#cb0;stroke-width:1;"/>
   <line x1="246" y1="145" x2="196" y2="92" style="stroke:#cb0;stroke-width:1;"/>
   <line x1="243.5" y1="145" x2="239.96446609407" y2="148.53553390593" style="stroke:#cb0;stroke-width:2;"/>
   <line x1="243.5" y1="145" x2="239.96446609407" y2="141.46446609407" style="stroke:#cb0;stroke-width:2;"/>
   <line x1="191" y1="92" x2="194.53553390593" y2="95.535533905933" style="stroke:#cb0;stroke-width:2;"/>
   <line x1="191" y1="92" x2="194.53553390593" y2="88.464466094067" style="stroke:#cb0;stroke-width:2;"/>
   <rect width="124" height="20" x="62" y="62" style="fill:#007;stroke:black;"/>
   <text width="124" height="20" x="67" y="76" style="fill:#fff;" font-family="Arial" font-size="16px"> Appointment</text>
   <rect width="124" height="20" x="62" y="82" style="fill:none;stroke:black;"/>
   <text width="124" height="20" x="67" y="96" style="fill:black;" font-family="Arial" font-size="16px">App_ID</text>
   <rect width="124" height="20" x="62" y="102" style="fill:none;stroke:black;"/>
   <text width="124" height="20" x="67" y="116" style="fill:black;" font-family="Arial" font-size="16px">Pat_ID</text>
   <rect width="124" height="20" x="62" y="122" style="fill:none;stroke:black;"/>
   <text width="124" height="20" x="67" y="136" style="fill:black;" font-family="Arial" font-size="16px">Doc_ID</text>
   <rect width="124" height="20" x="62" y="142" style="fill:none;stroke:black;"/>
   <text width="124" height="20" x="67" y="156" style="fill:black;" font-family="Arial" font-size="16px">App_Date_Time</text>
   <rect width="124" height="20" x="62" y="162" style="fill:none;stroke:black;"/>
   <text width="124" height="20" x="67" y="176" style="fill:black;" font-family="Arial" font-size="16px">App_Description</text>
   <rect width="96" height="20" x="169" y="87" style="fill:#007;stroke:black;"/>
   <text width="96" height="20" x="174" y="101" style="fill:#fff;" font-family="Arial" font-size="16px"> Billing_info</text>
   <rect width="96" height="20" x="169" y="107" style="fill:none;stroke:black;"/>
   <text width="96" height="20" x="174" y="121" style="fill:black;" font-family="Arial" font-size="16px">Bill_ID</text>
   <rect width="96" height="20" x="169" y="127" style="fill:none;stroke:black;"/>
   <text width="96" height="20" x="174" y="141" style="fill:black;" font-family="Arial" font-size="16px">Pat_ID</text>
   <rect width="96" height="20" x="169" y="147" style="fill:none;stroke:black;"/>
   <text width="96" height="20" x="174" y="161" style="fill:black;" font-family="Arial" font-size="16px">Visit_ID</text>
   <rect width="96" height="20" x="169" y="167" style="fill:none;stroke:black;"/>
   <text width="96" height="20" x="174" y="181" style="fill:black;" font-family="Arial" font-size="16px">App_ID</text>
   <rect width="96" height="20" x="169" y="187" style="fill:none;stroke:black;"/>
   <text width="96" height="20" x="174" y="201" style="fill:black;" font-family="Arial" font-size="16px">Doc_ID</text>
   <rect width="96" height="20" x="169" y="207" style="fill:none;stroke:black;"/>
   <text width="96" height="20" x="174" y="221" style="fill:black;" font-family="Arial" font-size="16px">Medicine_ID</text>
   <rect width="96" height="20" x="169" y="227" style="fill:none;stroke:black;"/>
   <text width="96" height="20" x="174" y="241" style="fill:black;" font-family="Arial" font-size="16px">Room_ID</text>
   <rect width="96" height="20" x="169" y="247" style="fill:none;stroke:black;"/>
   <text width="96" height="20" x="174" y="261" style="fill:black;" font-family="Arial" font-size="16px">No_of_Days</text>
   <rect width="96" height="20" x="169" y="267" style="fill:none;stroke:black;"/>
   <text width="96" height="20" x="174" y="281" style="fill:black;" font-family="Arial" font-size="16px">Staff_ID</text>
   <rect width="96" height="20" x="169" y="287" style="fill:none;stroke:black;"/>
   <text width="96" height="20" x="174" y="301" style="fill:black;" font-family="Arial" font-size="16px">Health_Card</text>
   <rect width="89" height="20" x="290" y="110" style="fill:#007;stroke:black;"/>
   <text width="89" height="20" x="295" y="124" style="fill:#fff;" font-family="Arial" font-size="16px"> Department</text>
   <rect width="89" height="20" x="290" y="130" style="fill:none;stroke:black;"/>
   <text width="89" height="20" x="295" y="144" style="fill:black;" font-family="Arial" font-size="16px">Dept_ID</text>
   <rect width="89" height="20" x="290" y="150" style="fill:none;stroke:black;"/>
   <text width="89" height="20" x="295" y="164" style="fill:black;" font-family="Arial" font-size="16px">Dept_name</text>
   <rect width="113" height="20" x="587" y="450" style="fill:#007;stroke:black;"/>
   <text width="113" height="20" x="592" y="464" style="fill:#fff;" font-family="Arial" font-size="16px"> Doctor</text>
   <rect width="113" height="20" x="587" y="470" style="fill:none;stroke:black;"/>
   <text width="113" height="20" x="592" y="484" style="fill:black;" font-family="Arial" font-size="16px">Doc_ID</text>
   <rect width="113" height="20" x="587" y="490" style="fill:none;stroke:black;"/>
   <text width="113" height="20" x="592" y="504" style="fill:black;" font-family="Arial" font-size="16px">Doc_fname</text>
   <rect width="113" height="20" x="587" y="510" style="fill:none;stroke:black;"/>
   <text width="113" height="20" x="592" y="524" style="fill:black;" font-family="Arial" font-size="16px">Doc_mname</text>
   <rect width="113" height="20" x="587" y="530" style="fill:none;stroke:black;"/>
   <text width="113" height="20" x="592" y="544" style="fill:black;" font-family="Arial" font-size="16px">Doc_lname</text>
   <rect width="113" height="20" x="587" y="550" style="fill:none;stroke:black;"/>
   <text width="113" height="20" x="592" y="564" style="fill:black;" font-family="Arial" font-size="16px">Doc_gender</text>
   <rect width="113" height="20" x="587" y="570" style="fill:none;stroke:black;"/>
   <text width="113" height="20" x="592" y="584" style="fill:black;" font-family="Arial" font-size="16px">Doc_DOB</text>
   <rect width="113" height="20" x="587" y="590" style="fill:none;stroke:black;"/>
   <text width="113" height="20" x="592" y="604" style="fill:black;" font-family="Arial" font-size="16px">Doc_contactno</text>
   <rect width="113" height="20" x="587" y="610" style="fill:none;stroke:black;"/>
   <text width="113" height="20" x="592" y="624" style="fill:black;" font-family="Arial" font-size="16px">Doc_emailID</text>
   <rect width="113" height="20" x="587" y="630" style="fill:none;stroke:black;"/>
   <text width="113" height="20" x="592" y="644" style="fill:black;" font-family="Arial" font-size="16px">Doc_Address</text>
   <rect width="113" height="20" x="587" y="650" style="fill:none;stroke:black;"/>
   <text width="113" height="20" x="592" y="664" style="fill:black;" font-family="Arial" font-size="16px">Doc_Specialist</text>
   <rect width="113" height="20" x="587" y="670" style="fill:none;stroke:black;"/>
   <text width="113" height="20" x="592" y="684" style="fill:black;" font-family="Arial" font-size="16px">Doc_DeptID</text>
   <rect width="113" height="20" x="587" y="690" style="fill:none;stroke:black;"/>
   <text width="113" height="20" x="592" y="704" style="fill:black;" font-family="Arial" font-size="16px">Doc_charge</text>
   <rect width="155" height="20" x="147" y="541" style="fill:#007;stroke:black;"/>
   <text width="155" height="20" x="152" y="555" style="fill:#fff;" font-family="Arial" font-size="16px"> Feedback</text>
   <rect width="155" height="20" x="147" y="561" style="fill:none;stroke:black;"/>
   <text width="155" height="20" x="152" y="575" style="fill:black;" font-family="Arial" font-size="16px">Feedback_ID</text>
   <rect width="155" height="20" x="147" y="581" style="fill:none;stroke:black;"/>
   <text width="155" height="20" x="152" y="595" style="fill:black;" font-family="Arial" font-size="16px">Pat_ID</text>
   <rect width="155" height="20" x="147" y="601" style="fill:none;stroke:black;"/>
   <text width="155" height="20" x="152" y="615" style="fill:black;" font-family="Arial" font-size="16px">Feedback_Date</text>
   <rect width="155" height="20" x="147" y="621" style="fill:none;stroke:black;"/>
   <text width="155" height="20" x="152" y="635" style="fill:black;" font-family="Arial" font-size="16px">Feedback_Comment</text>
   <rect width="155" height="20" x="147" y="641" style="fill:none;stroke:black;"/>
   <text width="155" height="20" x="152" y="655" style="fill:black;" font-family="Arial" font-size="16px">Feedback_Rating</text>
   <rect width="65" height="20" x="589" y="192" style="fill:#007;stroke:black;"/>
   <text width="65" height="20" x="594" y="206" style="fill:#fff;" font-family="Arial" font-size="16px"> HODs</text>
   <rect width="65" height="20" x="589" y="212" style="fill:none;stroke:black;"/>
   <text width="65" height="20" x="594" y="226" style="fill:black;" font-family="Arial" font-size="16px">Doc_ID</text>
   <rect width="65" height="20" x="589" y="232" style="fill:#aea;stroke:black;"/>
   <text width="65" height="20" x="594" y="246" style="fill:black;" font-family="Arial" font-size="16px">Dept_ID</text>
   <rect width="123" height="20" x="267" y="127" style="fill:#007;stroke:black;"/>
   <text width="123" height="20" x="272" y="141" style="fill:#fff;" font-family="Arial" font-size="16px"> In_Patients</text>
   <rect width="123" height="20" x="267" y="147" style="fill:none;stroke:black;"/>
   <text width="123" height="20" x="272" y="161" style="fill:black;" font-family="Arial" font-size="16px">In_Patient_ID</text>
   <rect width="123" height="20" x="267" y="167" style="fill:none;stroke:black;"/>
   <text width="123" height="20" x="272" y="181" style="fill:black;" font-family="Arial" font-size="16px">Pat_ID</text>
   <rect width="123" height="20" x="267" y="187" style="fill:none;stroke:black;"/>
   <text width="123" height="20" x="272" y="201" style="fill:black;" font-family="Arial" font-size="16px">Room_ID</text>
   <rect width="123" height="20" x="267" y="207" style="fill:none;stroke:black;"/>
   <text width="123" height="20" x="272" y="221" style="fill:black;" font-family="Arial" font-size="16px">Admission_Date</text>
   <rect width="123" height="20" x="267" y="227" style="fill:none;stroke:black;"/>
   <text width="123" height="20" x="272" y="241" style="fill:black;" font-family="Arial" font-size="16px">Discharge_Date</text>
   <rect width="111" height="20" x="213" y="221" style="fill:#007;stroke:black;"/>
   <text width="111" height="20" x="218" y="235" style="fill:#fff;" font-family="Arial" font-size="16px"> Medicines</text>
   <rect width="111" height="20" x="213" y="241" style="fill:none;stroke:black;"/>
   <text width="111" height="20" x="218" y="255" style="fill:black;" font-family="Arial" font-size="16px">Med_ID</text>
   <rect width="111" height="20" x="213" y="261" style="fill:none;stroke:black;"/>
   <text width="111" height="20" x="218" y="275" style="fill:black;" font-family="Arial" font-size="16px">Med_Name</text>
   <rect width="111" height="20" x="213" y="281" style="fill:none;stroke:black;"/>
   <text width="111" height="20" x="218" y="295" style="fill:black;" font-family="Arial" font-size="16px">Med_company</text>
   <rect width="111" height="20" x="213" y="301" style="fill:none;stroke:black;"/>
   <text width="111" height="20" x="218" y="315" style="fill:black;" font-family="Arial" font-size="16px">Med_price</text>
   <rect width="111" height="20" x="213" y="321" style="fill:none;stroke:black;"/>
   <text width="111" height="20" x="218" y="335" style="fill:black;" font-family="Arial" font-size="16px">Med_dose</text>
   <rect width="111" height="20" x="213" y="341" style="fill:none;stroke:black;"/>
   <text width="111" height="20" x="218" y="355" style="fill:black;" font-family="Arial" font-size="16px">Med_type</text>
   <rect width="151" height="20" x="490" y="470" style="fill:#007;stroke:black;"/>
   <text width="151" height="20" x="495" y="484" style="fill:#fff;" font-family="Arial" font-size="16px"> Out_patients</text>
   <rect width="151" height="20" x="490" y="490" style="fill:none;stroke:black;"/>
   <text width="151" height="20" x="495" y="504" style="fill:black;" font-family="Arial" font-size="16px">Out_Patient_ID</text>
   <rect width="151" height="20" x="490" y="510" style="fill:none;stroke:black;"/>
   <text width="151" height="20" x="495" y="524" style="fill:black;" font-family="Arial" font-size="16px">Pat_ID</text>
   <rect width="151" height="20" x="490" y="530" style="fill:none;stroke:black;"/>
   <text width="151" height="20" x="495" y="544" style="fill:black;" font-family="Arial" font-size="16px">Visit_Date</text>
   <rect width="151" height="20" x="490" y="550" style="fill:none;stroke:black;"/>
   <text width="151" height="20" x="495" y="564" style="fill:black;" font-family="Arial" font-size="16px">Treatment_Provided</text>
   <rect width="125" height="20" x="105" y="386" style="fill:#007;stroke:black;"/>
   <text width="125" height="20" x="110" y="400" style="fill:#fff;" font-family="Arial" font-size="16px"> Patient</text>
   <rect width="125" height="20" x="105" y="406" style="fill:none;stroke:black;"/>
   <text width="125" height="20" x="110" y="420" style="fill:black;" font-family="Arial" font-size="16px">Pat_ID</text>
   <rect width="125" height="20" x="105" y="426" style="fill:none;stroke:black;"/>
   <text width="125" height="20" x="110" y="440" style="fill:black;" font-family="Arial" font-size="16px">Pat_fname</text>
   <rect width="125" height="20" x="105" y="446" style="fill:none;stroke:black;"/>
   <text width="125" height="20" x="110" y="460" style="fill:black;" font-family="Arial" font-size="16px">Pat_mname</text>
   <rect width="125" height="20" x="105" y="466" style="fill:none;stroke:black;"/>
   <text width="125" height="20" x="110" y="480" style="fill:black;" font-family="Arial" font-size="16px">Pat_lname</text>
   <rect width="125" height="20" x="105" y="486" style="fill:none;stroke:black;"/>
   <text width="125" height="20" x="110" y="500" style="fill:black;" font-family="Arial" font-size="16px">Pat_gender</text>
   <rect width="125" height="20" x="105" y="506" style="fill:none;stroke:black;"/>
   <text width="125" height="20" x="110" y="520" style="fill:black;" font-family="Arial" font-size="16px">Pat_DOB</text>
   <rect width="125" height="20" x="105" y="526" style="fill:none;stroke:black;"/>
   <text width="125" height="20" x="110" y="540" style="fill:black;" font-family="Arial" font-size="16px">Pat_contactno</text>
   <rect width="125" height="20" x="105" y="546" style="fill:none;stroke:black;"/>
   <text width="125" height="20" x="110" y="560" style="fill:black;" font-family="Arial" font-size="16px">Pat_emailID</text>
   <rect width="125" height="20" x="105" y="566" style="fill:none;stroke:black;"/>
   <text width="125" height="20" x="110" y="580" style="fill:black;" font-family="Arial" font-size="16px">Pat_Address</text>
   <rect width="125" height="20" x="105" y="586" style="fill:none;stroke:black;"/>
   <text width="125" height="20" x="110" y="600" style="fill:black;" font-family="Arial" font-size="16px">Pat_MedHistory</text>
   <rect width="125" height="20" x="105" y="606" style="fill:none;stroke:black;"/>
   <text width="125" height="20" x="110" y="620" style="fill:black;" font-family="Arial" font-size="16px">Pat_BloodGroup</text>
   <rect width="120" height="20" x="557" y="490" style="fill:#007;stroke:black;"/>
   <text width="120" height="20" x="562" y="504" style="fill:#fff;" font-family="Arial" font-size="16px"> Rooms</text>
   <rect width="120" height="20" x="557" y="510" style="fill:#aea;stroke:black;"/>
   <text width="120" height="20" x="562" y="524" style="fill:black;" font-family="Arial" font-size="16px">Room_ID</text>
   <rect width="120" height="20" x="557" y="530" style="fill:none;stroke:black;"/>
   <text width="120" height="20" x="562" y="544" style="fill:black;" font-family="Arial" font-size="16px">Room_Type</text>
   <rect width="120" height="20" x="557" y="550" style="fill:none;stroke:black;"/>
   <text width="120" height="20" x="562" y="564" style="fill:black;" font-family="Arial" font-size="16px">Room_Capacity</text>
   <rect width="120" height="20" x="557" y="570" style="fill:none;stroke:black;"/>
   <text width="120" height="20" x="562" y="584" style="fill:black;" font-family="Arial" font-size="16px">Room_Charges</text>
   <rect width="157" height="20" x="88" y="549" style="fill:#007;stroke:black;"/>
   <text width="157" height="20" x="93" y="563" style="fill:#fff;" font-family="Arial" font-size="16px"> Staff</text>
   <rect width="157" height="20" x="88" y="569" style="fill:none;stroke:black;"/>
   <text width="157" height="20" x="93" y="583" style="fill:black;" font-family="Arial" font-size="16px">Staff_ID</text>
   <rect width="157" height="20" x="88" y="589" style="fill:#aea;stroke:black;"/>
   <text width="157" height="20" x="93" y="603" style="fill:black;" font-family="Arial" font-size="16px">Dept_ID</text>
   <rect width="157" height="20" x="88" y="609" style="fill:none;stroke:black;"/>
   <text width="157" height="20" x="93" y="623" style="fill:black;" font-family="Arial" font-size="16px">Staff_fname</text>
   <rect width="157" height="20" x="88" y="629" style="fill:none;stroke:black;"/>
   <text width="157" height="20" x="93" y="643" style="fill:black;" font-family="Arial" font-size="16px">Staff_mname</text>
   <rect width="157" height="20" x="88" y="649" style="fill:none;stroke:black;"/>
   <text width="157" height="20" x="93" y="663" style="fill:black;" font-family="Arial" font-size="16px">Staff_lname</text>
   <rect width="157" height="20" x="88" y="669" style="fill:none;stroke:black;"/>
   <text width="157" height="20" x="93" y="683" style="fill:black;" font-family="Arial" font-size="16px">Staff_gender</text>
   <rect width="157" height="20" x="88" y="689" style="fill:none;stroke:black;"/>
   <text width="157" height="20" x="93" y="703" style="fill:black;" font-family="Arial" font-size="16px">Staff_contactno</text>
   <rect width="157" height="20" x="88" y="709" style="fill:none;stroke:black;"/>
   <text width="157" height="20" x="93" y="723" style="fill:black;" font-family="Arial" font-size="16px">Staff_type</text>
   <rect width="157" height="20" x="88" y="729" style="fill:none;stroke:black;"/>
   <text width="157" height="20" x="93" y="743" style="fill:black;" font-family="Arial" font-size="16px">Staff_roomassigned1</text>
   <rect width="157" height="20" x="88" y="749" style="fill:none;stroke:black;"/>
   <text width="157" height="20" x="93" y="763" style="fill:black;" font-family="Arial" font-size="16px">Staff_roomassigned2</text>
   <rect width="157" height="20" x="88" y="769" style="fill:none;stroke:black;"/>
   <text width="157" height="20" x="93" y="783" style="fill:black;" font-family="Arial" font-size="16px">Staff_dutystarttime</text>
   <rect width="157" height="20" x="88" y="789" style="fill:none;stroke:black;"/>
   <text width="157" height="20" x="93" y="803" style="fill:black;" font-family="Arial" font-size="16px">Staff_dutyendtime</text>
   <rect width="157" height="20" x="88" y="809" style="fill:none;stroke:black;"/>
   <text width="157" height="20" x="93" y="823" style="fill:black;" font-family="Arial" font-size="16px">Staff_holiday</text>
   <rect width="157" height="20" x="88" y="829" style="fill:none;stroke:black;"/>
   <text width="157" height="20" x="93" y="843" style="fill:black;" font-family="Arial" font-size="16px">Staff_Charge</text>
   <rect width="94" height="20" x="614" y="295" style="fill:#007;stroke:black;"/>
   <text width="94" height="20" x="619" y="309" style="fill:#fff;" font-family="Arial" font-size="16px"> Test</text>
   <rect width="94" height="20" x="614" y="315" style="fill:none;stroke:black;"/>
   <text width="94" height="20" x="619" y="329" style="fill:black;" font-family="Arial" font-size="16px">Test_ID</text>
   <rect width="94" height="20" x="614" y="335" style="fill:none;stroke:black;"/>
   <text width="94" height="20" x="619" y="349" style="fill:black;" font-family="Arial" font-size="16px">Test_Name</text>
   <rect width="94" height="20" x="614" y="355" style="fill:none;stroke:black;"/>
   <text width="94" height="20" x="619" y="369" style="fill:black;" font-family="Arial" font-size="16px">Test_Prereq</text>
   <rect width="142" height="20" x="345" y="56" style="fill:#007;stroke:black;"/>
   <text width="142" height="20" x="350" y="70" style="fill:#fff;" font-family="Arial" font-size="16px"> Treatment</text>
   <rect width="142" height="20" x="345" y="76" style="fill:none;stroke:black;"/>
   <text width="142" height="20" x="350" y="90" style="fill:black;" font-family="Arial" font-size="16px">Visit_ID</text>
   <rect width="142" height="20" x="345" y="96" style="fill:#aea;stroke:black;"/>
   <text width="142" height="20" x="350" y="110" style="fill:black;" font-family="Arial" font-size="16px">App_ID</text>
   <rect width="142" height="20" x="345" y="116" style="fill:#aea;stroke:black;"/>
   <text width="142" height="20" x="350" y="130" style="fill:black;" font-family="Arial" font-size="16px">Test_ID</text>
   <rect width="142" height="20" x="345" y="136" style="fill:none;stroke:black;"/>
   <text width="142" height="20" x="350" y="150" style="fill:black;" font-family="Arial" font-size="16px">Test_Result</text>
   <rect width="142" height="20" x="345" y="156" style="fill:none;stroke:black;"/>
   <text width="142" height="20" x="350" y="170" style="fill:black;" font-family="Arial" font-size="16px">Current_Treatment</text>
   <rect width="142" height="20" x="345" y="176" style="fill:none;stroke:black;"/>
   <text width="142" height="20" x="350" y="190" style="fill:black;" font-family="Arial" font-size="16px">Extra_Comment</text>
   <rect width="113" height="20" x="123" y="95" style="fill:#007;stroke:black;"/>
   <text width="113" height="20" x="128" y="109" style="fill:#fff;" font-family="Arial" font-size="16px"> Visit</text>
   <rect width="113" height="20" x="123" y="115" style="fill:none;stroke:black;"/>
   <text width="113" height="20" x="128" y="129" style="fill:black;" font-family="Arial" font-size="16px">Visit_ID</text>
   <rect width="113" height="20" x="123" y="135" style="fill:none;stroke:black;"/>
   <text width="113" height="20" x="128" y="149" style="fill:black;" font-family="Arial" font-size="16px">App_ID</text>
   <rect width="113" height="20" x="123" y="155" style="fill:none;stroke:black;"/>
   <text width="113" height="20" x="128" y="169" style="fill:black;" font-family="Arial" font-size="16px">Pat_weight</text>
   <rect width="113" height="20" x="123" y="175" style="fill:none;stroke:black;"/>
   <text width="113" height="20" x="128" y="189" style="fill:black;" font-family="Arial" font-size="16px">Pat_height</text>
   <rect width="113" height="20" x="123" y="195" style="fill:none;stroke:black;"/>
   <text width="113" height="20" x="128" y="209" style="fill:black;" font-family="Arial" font-size="16px">Disease_name</text>
   <rect width="113" height="20" x="123" y="215" style="fill:none;stroke:black;"/>
   <text width="113" height="20" x="128" y="229" style="fill:black;" font-family="Arial" font-size="16px">Visit_charge</text>
</svg>
